<mxfile host="app.diagrams.net" modified="2020-11-16T11:14:10.232Z" agent="5.0 (Windows NT 10.0; Win64; x64) AppleWebKit/537.36 (KHTML, like Gecko) Chrome/86.0.4240.193 Safari/537.36" etag="QKOnFMIV0ciFcLNYQ1wd" version="13.9.7" type="github">
  <diagram id="JN9SQGumUfse3FGNZzMo" name="Page-1">
    <mxGraphModel dx="1348" dy="663" grid="1" gridSize="10" guides="1" tooltips="1" connect="1" arrows="1" fold="1" page="1" pageScale="1" pageWidth="827" pageHeight="1169" math="0" shadow="0">
      <root>
        <mxCell id="0" />
        <mxCell id="1" parent="0" />
        <mxCell id="XRyb0xycZNulAZf5XCpH-7" value="" style="group" vertex="1" connectable="0" parent="1">
          <mxGeometry x="41" y="40" width="187" height="144" as="geometry" />
        </mxCell>
        <mxCell id="XRyb0xycZNulAZf5XCpH-4" value="Game Builder" style="shape=image;html=1;verticalAlign=top;verticalLabelPosition=bottom;labelBackgroundColor=#ffffff;imageAspect=0;aspect=fixed;image=https://cdn2.iconfinder.com/data/icons/circle-icons-1/64/browser-128.png" vertex="1" parent="XRyb0xycZNulAZf5XCpH-7">
          <mxGeometry width="120" height="120" as="geometry" />
        </mxCell>
        <mxCell id="XRyb0xycZNulAZf5XCpH-27" value="" style="endArrow=classic;startArrow=classic;html=1;entryX=0;entryY=0;entryDx=0;entryDy=60;entryPerimeter=0;" edge="1" parent="XRyb0xycZNulAZf5XCpH-7" target="XRyb0xycZNulAZf5XCpH-17">
          <mxGeometry width="50" height="50" relative="1" as="geometry">
            <mxPoint x="120" y="60" as="sourcePoint" />
            <mxPoint x="170" y="10" as="targetPoint" />
          </mxGeometry>
        </mxCell>
        <mxCell id="XRyb0xycZNulAZf5XCpH-17" value="Budgie" style="verticalLabelPosition=bottom;verticalAlign=top;html=1;shape=mxgraph.infographic.shadedCube;isoAngle=15;fillColor=#10739E;strokeColor=none;" vertex="1" parent="1">
          <mxGeometry x="280" y="40" width="120" height="120" as="geometry" />
        </mxCell>
        <mxCell id="XRyb0xycZNulAZf5XCpH-14" value="Spotorama DB" style="shadow=0;dashed=0;html=1;strokeColor=none;fillColor=#505050;labelPosition=center;verticalLabelPosition=bottom;verticalAlign=top;outlineConnect=0;align=center;shape=mxgraph.office.databases.database_mini_3;" vertex="1" parent="1">
          <mxGeometry x="500" y="40" width="120" height="120" as="geometry" />
        </mxCell>
        <mxCell id="XRyb0xycZNulAZf5XCpH-25" value="" style="endArrow=classic;startArrow=classic;html=1;exitX=0;exitY=0;exitDx=120;exitDy=60;exitPerimeter=0;" edge="1" parent="1" source="XRyb0xycZNulAZf5XCpH-17" target="XRyb0xycZNulAZf5XCpH-14">
          <mxGeometry width="50" height="50" relative="1" as="geometry">
            <mxPoint x="450" y="90" as="sourcePoint" />
            <mxPoint x="500" y="40" as="targetPoint" />
          </mxGeometry>
        </mxCell>
      </root>
    </mxGraphModel>
  </diagram>
</mxfile>
